<?xml version="1.0" encoding="UTF-8" standalone="no"?>
<!-- Created with Inkscape (http://www.inkscape.org/) -->

<svg
   xmlns:dc="http://purl.org/dc/elements/1.1/"
   xmlns:cc="http://creativecommons.org/ns#"
   xmlns:rdf="http://www.w3.org/1999/02/22-rdf-syntax-ns#"
   xmlns:svg="http://www.w3.org/2000/svg"
   xmlns="http://www.w3.org/2000/svg"
   xmlns:sodipodi="http://sodipodi.sourceforge.net/DTD/sodipodi-0.dtd"
   xmlns:inkscape="http://www.inkscape.org/namespaces/inkscape"
   width="744.09448819"
   height="1052.3622047"
   id="svg2"
   version="1.1"
   inkscape:version="0.48.4 r9939"
   sodipodi:docname="ionic.svg">
  <defs
     id="defs4">
    <filter
       inkscape:collect="always"
       id="filter3827">
      <feGaussianBlur
         inkscape:collect="always"
         stdDeviation="1.5049111"
         id="feGaussianBlur3829" />
    </filter>
  </defs>
  <sodipodi:namedview
     id="base"
     pagecolor="#ffffff"
     bordercolor="#666666"
     borderopacity="1.0"
     inkscape:pageopacity="0.0"
     inkscape:pageshadow="2"
     inkscape:zoom="5.6"
     inkscape:cx="336.86289"
     inkscape:cy="708.18592"
     inkscape:document-units="px"
     inkscape:current-layer="layer1"
     showgrid="false"
     inkscape:window-width="1062"
     inkscape:window-height="813"
     inkscape:window-x="810"
     inkscape:window-y="198"
     inkscape:window-maximized="0" />
  <metadata
     id="metadata7">
    <rdf:RDF>
      <cc:Work
         rdf:about="">
        <dc:format>image/svg+xml</dc:format>
        <dc:type
           rdf:resource="http://purl.org/dc/dcmitype/StillImage" />
        <dc:title></dc:title>
      </cc:Work>
    </rdf:RDF>
  </metadata>
  <g
     inkscape:label="Layer 1"
     inkscape:groupmode="layer"
     id="layer1">
    <g
       style="opacity:0.95583592;fill:#333333;filter:url(#filter3827)"
       transform="matrix(0.22186666,0,0,0.22186666,331.87067,333.47275)"
       id="g3009" />
    <g
       id="g3839"
       inkscape:export-filename="/home/crypto/NetBeansProjects/ellak/www/img/sights.png"
       inkscape:export-xdpi="90"
       inkscape:export-ydpi="90"
       transform="translate(-34.642858,-2.8571428)">
      <path
         transform="matrix(0.22186666,0,0,0.22186666,257.70413,277.15534)"
         d="m 437.85714,303.07648 c 0,29.58668 -23.98475,53.57143 -53.57143,53.57143 -29.58669,0 -53.57143,-23.98475 -53.57143,-53.57143 0,-29.58669 23.98474,-53.57143 53.57143,-53.57143 29.58668,0 53.57143,23.98474 53.57143,53.57143 z"
         sodipodi:ry="53.57143"
         sodipodi:rx="53.57143"
         sodipodi:cy="303.07648"
         sodipodi:cx="384.28571"
         id="path3001"
         style="fill:#4d4d4d;fill-opacity:0.95686275;stroke:none"
         sodipodi:type="arc" />
      <g
         style="fill:#ff8080;fill-opacity:1;stroke:none"
         transform="matrix(0.22186666,0,0,0.22186666,331.87067,333.47275)"
         id="g2986">
        <path
           style="fill:#ffffff;fill-opacity:1;stroke:none"
           inkscape:connector-curvature="0"
           d="m 25.758791,29.981398 c 0.028,0 0.058,-10e-4 0.086,-0.004 l 32.75,-2.834 c 0.475,-0.041 0.854,-0.411 0.908,-0.885 l 1.26,-11.25 c 0.035,-0.321 -0.086,-0.64 -0.326,-0.855 -0.24,-0.217 -0.566,-0.305 -0.887,-0.231 l -13.408,3 c -0.191,0.043 -0.366,0.141 -0.502,0.282 -1.013,1.053 -4.167,3.786 -6.563,3.786 -0.567,0 -1.046,-0.154 -1.462,-0.471 -0.2,-0.153 -0.453,-0.225 -0.702,-0.2 l -11.25,1.083 c -0.513,0.049 -0.904,0.479 -0.904,0.995 v 6.584 c 0,0.28 0.117,0.548 0.324,0.737 0.184,0.17 0.426,0.263 0.676,0.263 z"
           id="path2988" />
        <path
           style="fill:#ffffff;fill-opacity:1;stroke:none"
           inkscape:connector-curvature="0"
           d="m 79.582791,76.092627 -2,-5.916 c -0.138,-0.406 -0.519,-0.68 -0.947,-0.68 h -5.867 v -18.167 c 0,-0.553 -0.447,-1 -1,-1 h -4 v -4.917 c 0,-0.281 -0.141,-0.548 -0.349,-0.737 -0.207,-0.189 -0.507,-0.284 -0.787,-0.257 -0.646,0 -2.051,-0.986 -4.054,-3.754 -0.256,-0.353 -0.71,-0.5 -1.118,-0.365 -0.413,0.134 -0.692,0.518 -0.692,0.951 v 28.246 h -2.846 v -28.246 c 0,-0.339 -0.172,-0.654 -0.456,-0.839 -0.284,-0.185 -0.644,-0.214 -0.951,-0.074 l -0.851,0.379 2.179,-5.165 c 0.053,-0.123 0.079,-0.255 0.079,-0.389 v -3 c 0,-0.553 -0.447,-1 -1,-1 h -10 c -0.553,0 -1,0.447 -1,1 v 37.334 h -2.664 v -37.334 c 0,-0.553 -0.447,-1 -1,-1 h -10 c -0.553,0 -1,0.447 -1,1 v 37.334 h -3.5 c -0.429,0 -0.81,0.273 -0.947,0.68 l -2,5.916 c -0.104,0.306 -0.053,0.642 0.135,0.903 0.188,0.261 0.489,0.417 0.812,0.417 h 54.877 c 0.322,0 0.625,-0.155 0.813,-0.417 0.188,-0.262 0.237,-0.598 0.134,-0.903 z"
           id="path2990" />
      </g>
    </g>
    <rect
       y="324.77289"
       x="316.96429"
       height="3.4821429"
       width="3.75"
       id="rect3831"
       style="opacity:0.95583592;fill:#4d4d4d;fill-opacity:1;stroke:none" />
    <g
       id="g3789"
       inkscape:export-filename="/home/crypto/Επιφάνεια εργασίας/park.png"
       inkscape:export-xdpi="90"
       inkscape:export-ydpi="90"
       transform="translate(-45.714286,26.964286)">
      <path
         sodipodi:type="arc"
         style="fill:#4d4d4d;fill-opacity:0.95686275;stroke:none"
         id="path2993"
         sodipodi:cx="384.28571"
         sodipodi:cy="303.07648"
         sodipodi:rx="53.57143"
         sodipodi:ry="53.57143"
         d="m 437.85714,303.07648 c 0,29.58668 -23.98475,53.57143 -53.57143,53.57143 -29.58669,0 -53.57143,-23.98475 -53.57143,-53.57143 0,-29.58669 23.98474,-53.57143 53.57143,-53.57143 29.58668,0 53.57143,23.98474 53.57143,53.57143 z"
         transform="matrix(0.22186666,0,0,0.22186666,267.70413,273.94105)" />
      <g
         style="fill:#b5e200;fill-opacity:1"
         transform="matrix(0.02102837,0,0,0.01684254,344.37761,331.57817)"
         id="g3006">
        <path
           style="fill:#b5e200;fill-opacity:1"
           inkscape:connector-curvature="0"
           d="m 570.576,438.922 0,0 c 17.937,0 24.4,-12.103 14.449,-26.997 L 491.229,271.23 c -9.951,-14.956 -3.422,-26.997 14.449,-26.997 17.937,0 24.4,-12.106 14.449,-27 L 426.332,76.537 c -9.952,-14.957 -26.048,-14.957 -36,0 l -93.796,140.695 c -9.952,14.895 -3.422,27 14.449,27 17.871,0 24.4,12.041 14.449,26.997 l -93.796,140.695 c -9.951,14.895 -3.422,26.997 14.449,26.997 17.872,0 24.973,12.425 15.782,27.823 L 100.515,735.588 c -9.191,15.336 -2.093,27.822 15.778,27.822 h 584.079 c 17.934,0 24.97,-12.486 15.779,-27.822 L 554.795,466.745 c -9.191,-15.398 -2.155,-27.823 15.781,-27.823"
           id="path3008" />
        <path
           style="fill:#b5e200;fill-opacity:1"
           sodipodi:nodetypes="cssssssssscccc"
           inkscape:connector-curvature="0"
           d="m 629.75405,893.205 -118.34157,0 c -17.871,0 -32.451,-14.514 -32.451,-32.446 0,-17.937 -14.576,-32.451 -32.447,-32.451 l -64.898,0 c -17.871,0 -32.447,14.515 -32.447,32.451 0,17.933 -14.579,32.446 -32.45,32.446 l -129.796,0 c -17.871,0 -32.447,14.515 -32.447,32.447 l 0,0.572 c 0,17.937 14.576,32.447 32.447,32.447 l 442.83057,-0.568 c 17.934,0 32.447,-14.515 32.447,-32.451 10e-4,-17.932 -14.513,-32.447 -32.447,-32.447"
           id="path3010" />
      </g>
    </g>
    <g
       id="g3835"
       transform="translate(-45.204326,-32.072343)">
      <path
         sodipodi:type="arc"
         style="fill:#4d4d4d;fill-opacity:0.95686275;stroke:none"
         id="path3837"
         sodipodi:cx="384.28571"
         sodipodi:cy="303.07648"
         sodipodi:rx="53.57143"
         sodipodi:ry="53.57143"
         d="m 437.85714,303.07648 c 0,29.58668 -23.98475,53.57143 -53.57143,53.57143 -29.58669,0 -53.57143,-23.98475 -53.57143,-53.57143 0,-29.58669 23.98474,-53.57143 53.57143,-53.57143 29.58668,0 53.57143,23.98474 53.57143,53.57143 z"
         transform="matrix(0.22186666,0,0,0.22186666,268.23984,271.79819)" />
      <g
         id="g3840"
         transform="matrix(0.01699492,0,0,0.01699492,344.7026,330.26535)"
         style="fill:#00ccff">
        <path
           id="path3842"
           d="m 102,322.2 c 0,113.7 0,439.8 0,439.8 0,19.7 11.6,37.6 29.6,45.7 L 465,956.3 c 16.5,7.4 35.2,-4.7 35.2,-22.8 v -456 c 0,-9.9 -5.8,-18.8 -14.8,-22.8 L 137.2,299.3 C 120.6,292 102,304.1 102,322.2 z m 188.4,223.9 c 21.6,-1.4 40.9,26.6 43.2,62.5 2.3,35.9 -13.4,66.1 -35,67.4 -21.6,1.4 -40.9,-26.6 -43.2,-62.5 -2.3,-35.9 13.4,-66.1 35,-67.4 z"
           inkscape:connector-curvature="0"
           style="fill:#00ccff" />
        <path
           id="path3844"
           d="m 933.3,761.9 c 0,0 0,-326.1 0,-439.8 0,-18.1 -18.7,-30.2 -35.2,-22.8 L 550,454.7 c -9,4 -14.8,13 -14.8,22.8 v 456 c 0,18.1 18.7,30.2 35.2,22.8 L 903.8,807.6 c 17.9,-8 29.5,-25.9 29.5,-45.7 z m -231.4,-12 c -2.3,35.9 -21.6,63.8 -43.2,62.5 -21.6,-1.4 -37.2,-31.6 -35,-67.4 2.3,-35.9 21.6,-63.8 43.2,-62.5 21.7,1.4 37.3,31.6 35,67.4 z M 849.7,496.5 c -2.3,35.9 -21.6,63.8 -43.2,62.5 -21.6,-1.4 -37.2,-31.6 -35,-67.4 2.3,-35.9 21.6,-63.8 43.2,-62.5 21.6,1.3 37.3,31.5 35,67.4 z"
           inkscape:connector-curvature="0"
           style="fill:#00ccff" />
        <path
           id="path3846"
           d="m 154.6,268.8 352.9,157.4 c 6.5,2.9 13.9,2.9 20.4,0 L 880.8,268.8 c 20,-8.9 19.7,-37.4 -0.5,-45.9 L 537.1,78.1 c -6.2,-2.6 -12.8,-3.9 -19.4,-3.9 -6.6,0 -13.2,1.3 -19.4,3.9 L 155,222.9 c -20.1,8.5 -20.4,37 -0.4,45.9 z m 553.5,-64.3 c 35.9,-0.2 65.1,17.3 65.2,39 0.1,21.7 -28.9,39.5 -64.8,39.6 -35.9,0.2 -65.1,-17.3 -65.2,-39 -0.1,-21.7 28.9,-39.5 64.8,-39.6 z m -190.6,0 c 35.9,-0.2 65.1,17.3 65.2,39 0.1,21.7 -28.9,39.5 -64.8,39.6 -35.9,0.2 -65.1,-17.3 -65.2,-39 -0.1,-21.7 28.9,-39.5 64.8,-39.6 z m -190.6,0 c 35.9,-0.2 65.1,17.3 65.2,39 0.1,21.7 -28.9,39.5 -64.8,39.6 -35.9,0.1 -65.1,-17.3 -65.2,-39 -0.1,-21.7 28.9,-39.5 64.8,-39.6 z"
           inkscape:connector-curvature="0"
           style="fill:#00ccff" />
      </g>
    </g>
    <g
       id="g3886"
       transform="translate(-45.961941,59.346462)">
      <path
         sodipodi:type="arc"
         style="fill:#4d4d4d;fill-opacity:0.95686275;stroke:none"
         id="path3888"
         sodipodi:cx="384.28571"
         sodipodi:cy="303.07648"
         sodipodi:rx="53.57143"
         sodipodi:ry="53.57143"
         d="m 437.85714,303.07648 c 0,29.58668 -23.98475,53.57143 -53.57143,53.57143 -29.58669,0 -53.57143,-23.98475 -53.57143,-53.57143 0,-29.58669 23.98474,-53.57143 53.57143,-53.57143 29.58668,0 53.57143,23.98474 53.57143,53.57143 z"
         transform="matrix(0.22186666,0,0,0.22186666,268.23984,271.79819)" />
      <g
         id="g3890"
         transform="matrix(0.03110779,0,0,0.03110779,345.72305,331.26382)"
         style="fill:#ffe132;fill-opacity:1">
        <path
           id="path3892"
           d="m 92.026,353.375 c 54.602,1.063 101.919,9.228 136.837,23.613 0.596,0.244 1.227,0.366 1.852,0.366 0.95,0 1.895,-0.279 2.706,-0.822 1.349,-0.902 2.158,-2.418 2.158,-4.041 l 0.019,-261.017 c 0,-1.992 -1.215,-3.783 -3.066,-4.519 L 93.918,51.797 c -1.496,-0.596 -3.193,-0.411 -4.527,0.494 -1.334,0.906 -2.133,2.413 -2.133,4.025 v 292.197 c 0,2.649 2.12,4.81 4.768,4.862 z"
           inkscape:connector-curvature="0"
           style="fill:#ffe132;fill-opacity:1" />
        <path
           id="path3894"
           d="m 489.143,98.154 c -1.231,-0.917 -2.824,-1.198 -4.297,-0.759 l -49.025,14.657 c -2.06,0.616 -3.471,2.51 -3.471,4.659 v 252.151 c 0,0 0.218,3.978 -3.97,3.978 -4.796,0 -7.946,0 -7.946,0 -39.549,0 -113.045,4.105 -160.93,31.6 l -9.504,5.442 -9.503,-5.442 c -47.886,-27.494 -121.381,-31.6 -160.93,-31.6 0,0 -8.099,0 -10.142,0 -1.891,0 -1.775,-2.272 -1.775,-2.271 V 116.711 c 0,-2.149 -1.411,-4.043 -3.47,-4.659 L 15.155,97.395 c -1.473,-0.439 -3.066,-0.158 -4.298,0.759 -1.232,0.917 -1.958,2.363 -1.958,3.899 v 305.069 c 0,1.372 0.581,2.681 1.597,3.604 1.017,0.921 2.375,1.372 3.741,1.236 14.571,-1.429 37.351,-3.131 63.124,-3.131 56.606,0 102.097,8.266 131.576,23.913 4.331,2.272 29.441,15.803 41.065,15.803 11.624,0 36.733,-13.53 41.063,-15.803 29.48,-15.647 74.971,-23.913 131.577,-23.913 25.771,0 48.553,1.702 63.123,3.131 1.367,0.136 2.725,-0.315 3.742,-1.236 1.016,-0.923 1.596,-2.231 1.596,-3.604 V 102.053 c -0.001,-1.536 -0.728,-2.982 -1.96,-3.899 z"
           inkscape:connector-curvature="0"
           style="fill:#ffe132;fill-opacity:1" />
        <path
           id="path3896"
           d="m 266.578,376.532 c 0.812,0.543 1.757,0.822 2.706,0.822 0.626,0 1.256,-0.122 1.853,-0.366 34.917,-14.386 82.235,-22.551 136.837,-23.613 2.648,-0.052 4.769,-2.213 4.769,-4.861 V 56.316 c 0,-1.613 -0.799,-3.12 -2.133,-4.025 -1.334,-0.904 -3.031,-1.09 -4.528,-0.494 l -138.614,55.158 c -1.851,0.736 -3.065,2.527 -3.065,4.519 l 0.019,261.017 c -0.002,1.623 0.808,3.139 2.156,4.041 z"
           inkscape:connector-curvature="0"
           style="fill:#ffe132;fill-opacity:1" />
      </g>
    </g>
    <g
       inkscape:export-ydpi="90"
       inkscape:export-xdpi="90"
       inkscape:export-filename="/home/crypto/Επιφάνεια εργασίας/church.png"
       id="g3921"
       transform="translate(-46.25,-61.785714)">
      <path
         sodipodi:type="arc"
         style="fill:#4d4d4d;fill-opacity:0.95686275;stroke:none"
         id="path3923"
         sodipodi:cx="384.28571"
         sodipodi:cy="303.07648"
         sodipodi:rx="53.57143"
         sodipodi:ry="53.57143"
         d="m 437.85714,303.07648 c 0,29.58668 -23.98475,53.57143 -53.57143,53.57143 -29.58669,0 -53.57143,-23.98475 -53.57143,-53.57143 0,-29.58669 23.98474,-53.57143 53.57143,-53.57143 29.58668,0 53.57143,23.98474 53.57143,53.57143 z"
         transform="matrix(0.22186666,0,0,0.22186666,268.23984,271.79819)" />
      <g
         id="g3925"
         transform="matrix(0.29585973,0,0,0.26870319,343.88251,329.75837)"
         style="fill:#d5f6ff">
        <path
           id="path3927"
           d="m 11.056,57.175 h 12.924 2.467 v -5.483 c 0,-2.209 1.225,-4 2.734,-4 1.512,0 2.736,1.791 2.736,4 v 5.483 h 0.248 0.688 0.248 v -5.483 c 0,-2.209 1.225,-4 2.734,-4 1.512,0 2.736,1.791 2.736,4 v 5.483 h 3.152 12.238 c 2.533,0 4.588,-2.055 4.588,-4.589 v -1.299 c 0,-2.534 -1.828,-5.524 -4.086,-6.677 L 41.723,38.101 V 25.053 c 0,-2.534 -1.314,-5.558 -2.748,-6.752 l -2.598,-2.164 c -0.505,-0.421 -1.095,-0.728 -1.723,-0.933 v -4.299 c 0,0 0.744,0 1.662,0 0.918,0 1.662,-0.961 1.662,-2.147 0,-1.186 -0.744,-2.146 -1.662,-2.146 h -1.662 c 0,0 0,-1.127 0,-2.518 0,-1.39 -0.961,-2.517 -2.148,-2.517 -1.184,0 -2.146,1.127 -2.146,2.517 v 2.518 c 0,0 -0.744,0 -1.662,0 -0.918,0 -1.662,0.96 -1.662,2.146 0,1.186 0.744,2.147 1.662,2.147 h 1.662 v 4.559 c -0.376,0.176 -0.737,0.38 -1.059,0.643 0,0 -1.191,0.976 -2.66,2.179 -1.471,1.203 -2.662,4.233 -2.662,6.768 V 37.75 l -13.428,6.86 c -2.256,1.153 -4.086,4.142 -4.086,6.677 v 1.299 c 0.001,2.535 2.056,4.589 4.591,4.589 z M 35.602,39.602 H 29.414 V 27.604 c 0,-2.79 1.385,-5.051 3.094,-5.051 1.709,0 3.094,2.262 3.094,5.051 v 11.998 z"
           inkscape:connector-curvature="0"
           style="fill:#d5f6ff" />
      </g>
    </g>
    <g
       id="g3947"
       inkscape:export-filename="/home/crypto/Επιφάνεια εργασίας/art.png"
       inkscape:export-xdpi="90"
       inkscape:export-ydpi="90">
      <path
         transform="matrix(0.22186666,0,0,0.22186666,268.23984,271.79819)"
         d="m 437.85714,303.07648 c 0,29.58668 -23.98475,53.57143 -53.57143,53.57143 -29.58669,0 -53.57143,-23.98475 -53.57143,-53.57143 0,-29.58669 23.98474,-53.57143 53.57143,-53.57143 29.58668,0 53.57143,23.98474 53.57143,53.57143 z"
         sodipodi:ry="53.57143"
         sodipodi:rx="53.57143"
         sodipodi:cy="303.07648"
         sodipodi:cx="384.28571"
         id="path3797"
         style="fill:#4d4d4d;fill-opacity:0.95686275;stroke:none"
         sodipodi:type="arc" />
      <g
         transform="matrix(0.84567114,0,0,0.84567114,343.35198,328.89271)"
         id="g3943"
         style="display:block;fill:#ffa365;fill-opacity:1">
        <g
           style="fill:#ffa365;fill-opacity:1"
           id="palette">
          <path
             style="fill:#ffa365;fill-opacity:1"
             inkscape:connector-curvature="0"
             d="m 12,3 c -5,0 -9,4 -9,9 0,5 4,9 9,9 0.8,0 1.5,-0.7 1.5,-1.5 0,-0.4 -0.1,-0.7 -0.4,-1 -0.2,-0.3 -0.4,-0.6 -0.4,-1 0,-0.8 0.7,-1.5 1.5,-1.5 H 16 c 2.8,0 5,-2.2 5,-5 C 21,6.6 17,3 12,3 z M 6.5,12 C 5.7,12 5,11.3 5,10.5 5,9.7 5.7,9 6.5,9 7.3,9 8,9.7 8,10.5 8,11.3 7.3,12 6.5,12 z m 3,-4 C 8.7,8 8,7.3 8,6.5 8,5.7 8.7,5 9.5,5 10.3,5 11,5.7 11,6.5 11,7.3 10.3,8 9.5,8 z m 5,0 C 13.7,8 13,7.3 13,6.5 13,5.7 13.7,5 14.5,5 15.3,5 16,5.7 16,6.5 16,7.3 15.3,8 14.5,8 z m 3,4 C 16.7,12 16,11.3 16,10.5 16,9.7 16.7,9 17.5,9 18.3,9 19,9.7 19,10.5 19,11.3 18.3,12 17.5,12 z"
             id="path3935" />
        </g>
      </g>
    </g>
    <g
       transform="translate(-9.8214285,-32.857143)"
       id="g3979"
       inkscape:export-filename="/home/crypto/Επιφάνεια εργασίας/theater.png"
       inkscape:export-xdpi="90"
       inkscape:export-ydpi="90">
      <path
         transform="matrix(0.22186666,0,0,0.22186666,268.23984,271.79819)"
         d="m 437.85714,303.07648 c 0,29.58668 -23.98475,53.57143 -53.57143,53.57143 -29.58669,0 -53.57143,-23.98475 -53.57143,-53.57143 0,-29.58669 23.98474,-53.57143 53.57143,-53.57143 29.58668,0 53.57143,23.98474 53.57143,53.57143 z"
         sodipodi:ry="53.57143"
         sodipodi:rx="53.57143"
         sodipodi:cy="303.07648"
         sodipodi:cx="384.28571"
         id="path3981"
         style="fill:#4d4d4d;fill-opacity:0.95686275;stroke:none"
         sodipodi:type="arc" />
      <g
         style="fill:#c6afe9"
         transform="matrix(0.01874432,0,0,0.01874432,344.12786,329.6686)"
         id="g3983">
        <path
           style="fill:#c6afe9"
           inkscape:connector-curvature="0"
           d="m 668.493,124.194 c -251.764,0 -250.068,49.777 -250.068,49.777 v 138.337 c 46.761,-4.182 78.887,-11.315 99.643,-17.66 30.896,-9.449 43.253,-18.961 45.434,-20.792 4.639,-5.68 11.163,-8.57 18.082,-8.57 2.88,0 5.815,0.493 8.723,1.499 10.032,3.473 16.144,13.631 16.144,24.238 v 199.995 c 19.526,-9.691 40.525,-14.618 63.165,-14.69 6.012,0.287 12.482,0.682 21.483,1.857 8.049,1.552 15.3,3.006 22.793,5.635 14.735,5.142 29.075,12.438 41.898,22.847 23.064,18.235 43.093,46.46 47.125,79.765 0.664,5.483 -3.571,8.666 -8.912,7.26 -25.621,-6.745 -45.218,-8.074 -64.452,-9.538 l -30.977,-1.364 -31.21,-0.476 c -17.831,0.188 -39.224,0.296 -59.971,1.651 -0.314,0.018 -0.637,0.054 -0.942,0.072 -0.09,55.206 -12.474,107.136 -34.154,152.363 29.631,14.457 62.125,22.47 96.242,22.47 138.158,0 250.157,-130.961 250.157,-292.441 V 173.97 c -10e-4,0 1.543,-49.776 -250.203,-49.776 z m 165.674,271.518 c -30.062,23.151 -73.361,20.952 -100.909,-6.596 -27.548,-27.548 -29.747,-70.846 -6.597,-100.909 3.37,-4.376 9.762,-4.34 13.667,-0.434 l 94.272,94.272 c 3.907,3.905 3.943,10.298 -0.433,13.667 z"
           id="path3985" />
        <path
           style="fill:#c6afe9"
           inkscape:connector-curvature="0"
           d="m 581.565,291.022 c 0,0 -45.559,49.786 -250.112,49.786 -204.536,0 -250.149,-49.786 -250.149,-49.786 v 292.441 c 0,161.489 112.009,292.343 250.122,292.343 138.149,0 250.14,-130.853 250.14,-292.343 V 291.022 z M 160.53,554.207 c -5.523,0 -10.069,-4.495 -9.357,-9.971 4.887,-37.627 37.059,-66.689 76.018,-66.689 38.959,0 71.13,29.062 76.018,66.689 0.711,5.477 -3.834,9.971 -9.357,9.971 H 160.53 z m 305.239,98.909 c -4.081,33.206 -24.146,61.347 -47.155,79.659 -26.293,20.334 -55.646,30.25 -88.373,30.34 -6.03,-0.278 -12.437,-0.574 -21.492,-1.84 -8.058,-1.562 -15.309,-2.907 -22.802,-5.645 -14.726,-5.151 -29.057,-12.446 -41.853,-22.748 -23.04,-18.227 -43.111,-46.533 -47.157,-79.846 -0.666,-5.482 3.567,-8.666 8.908,-7.258 25.631,6.759 45.273,8.142 64.515,9.518 l 30.968,1.364 31.165,0.494 c 17.822,-0.09 39.224,-0.188 60.025,-1.651 19.242,-1.392 38.849,-2.783 64.364,-9.606 5.336,-1.426 9.56,1.738 8.887,7.219 z M 502.34,554.207 H 369.019 c -5.523,0 -10.069,-4.495 -9.357,-9.971 4.888,-37.627 37.059,-66.689 76.018,-66.689 38.959,0 71.13,29.062 76.018,66.689 0.711,5.476 -3.835,9.971 -9.358,9.971 z"
           id="path3987" />
      </g>
    </g>
    <g
       id="g4009"
       inkscape:export-filename="/home/crypto/NetBeansProjects/ellak/www/img/museum.png"
       inkscape:export-xdpi="90"
       inkscape:export-ydpi="90"
       transform="translate(-6.4285714,-7.5)">
      <path
         sodipodi:type="arc"
         style="fill:#4d4d4d;fill-opacity:0.95686275;stroke:none"
         id="path3955"
         sodipodi:cx="384.28571"
         sodipodi:cy="303.07648"
         sodipodi:rx="53.57143"
         sodipodi:ry="53.57143"
         d="m 437.85714,303.07648 c 0,29.58668 -23.98475,53.57143 -53.57143,53.57143 -29.58669,0 -53.57143,-23.98475 -53.57143,-53.57143 0,-29.58669 23.98474,-53.57143 53.57143,-53.57143 29.58668,0 53.57143,23.98474 53.57143,53.57143 z"
         transform="matrix(0.22186666,0,0,0.22186666,265.56127,277.15533)" />
      <g
         style="fill:#ff8080;fill-opacity:1"
         transform="matrix(0.55734802,0,0,0.55734802,343.73951,336.60111)"
         id="g4004">
        <g
           style="fill:#ff8080;fill-opacity:1"
           id="c13_monument">
          <path
             inkscape:connector-curvature="0"
             id="_x3C_Group_x3E__4_"
             style="fill:#ff8080;fill-opacity:1"
             d="M 17.244,19.968 V 9.076 h -3.63 v 10.892 h 3.63 z m 5.447,0 V 9.076 H 19.06 v 10.892 h 3.631 z M 24.507,6.938 12.708,0 0.907,6.938 c 0,0 -0.814,0.734 0,1.23 h 23.6 c 0,0 0.66,-0.54 0,-1.23 z M 11.8,19.968 V 9.076 H 8.169 V 19.968 H 11.8 z m -5.446,0 V 9.076 H 2.722 V 19.968 H 6.354 z M 23.711,21.25 1.994,21.311 0,23.916 v 1.499 H 25.413 V 23.916 L 23.711,21.25 z" />
        </g>
        <g
           style="fill:#ff8080;fill-opacity:1"
           id="Capa_1" />
      </g>
    </g>
    <g
       id="g4051"
       inkscape:export-filename="/home/crypto/Επιφάνεια εργασίας/misc.png"
       inkscape:export-xdpi="90"
       inkscape:export-ydpi="90">
      <path
         transform="matrix(0.22186666,0,0,0.22186666,258.77556,304.47676)"
         d="m 437.85714,303.07648 a 53.57143,53.57143 0 1 1 -107.14286,0 53.57143,53.57143 0 1 1 107.14286,0 z"
         sodipodi:ry="53.57143"
         sodipodi:rx="53.57143"
         sodipodi:cy="303.07648"
         sodipodi:cx="384.28571"
         id="path4026"
         style="fill:#ff8080;fill-opacity:1;stroke:none"
         sodipodi:type="arc" />
      <path
         style="fill:#4d4d4d;fill-opacity:0.95686274999999998"
         inkscape:connector-curvature="0"
         d="m 350.4994,375.45097 c -0.22316,0.38782 -0.62847,0.60314 -1.04585,0.60314 -0.20446,0 -0.41194,-0.0519 -0.60193,-0.16164 l -3.6086,-2.08386 v 4.16771 c 0,0.66587 -0.54042,1.20629 -1.20629,1.20629 -0.66587,0 -1.20628,-0.54042 -1.20628,-1.20629 v -4.16831 l -3.60981,2.08446 c -0.18999,0.10977 -0.39747,0.16164 -0.60194,0.16164 -0.41677,0 -0.82269,-0.21532 -1.04585,-0.60314 -0.33293,-0.57721 -0.1357,-1.31485 0.4415,-1.64719 l 3.6086,-2.08446 -3.6092,-2.08385 c -0.57721,-0.33354 -0.77444,-1.06998 -0.4415,-1.64719 0.33293,-0.5772 1.07118,-0.77503 1.64778,-0.4415 l 3.60921,2.08386 v -4.16832 c 0,-0.66587 0.54042,-1.20628 1.20628,-1.20628 0.66587,0 1.20629,0.54041 1.20629,1.20628 v 4.16772 l 3.6086,-2.08386 c 0.57661,-0.33354 1.31606,-0.13571 1.64779,0.4415 0.33293,0.57721 0.1357,1.31485 -0.4415,1.64718 l -3.608,2.08446 3.6086,2.08386 c 0.57721,0.33294 0.77504,1.06998 0.4421,1.64779 z"
         id="path4037" />
    </g>
  </g>
</svg>
